<?xml version="1.0" encoding="UTF-8"?>
<!-- Generated by Pixelmator Pro 2.4.5 -->
<svg width="24" height="24" viewBox="0 0 24 24" xmlns="http://www.w3.org/2000/svg" xmlns:xlink="http://www.w3.org/1999/xlink">
    <path id="Path" fill="#000000" fill-rule="evenodd" stroke="none" d="M 19.747437 19.746063 L 16.484562 19.746063 L 16.484562 14.640687 C 16.484562 13.423125 16.463936 11.857 14.789187 11.857 C 13.09175 11.857 12.832562 13.183875 12.832562 14.553374 L 12.832562 19.746063 L 9.573125 19.746063 L 9.573125 9.24725 L 12.70125 9.24725 L 12.70125 10.68275 L 12.745937 10.68275 C 13.181125 9.857062 14.245375 8.986688 15.832812 8.986688 C 19.136936 8.986688 19.747437 11.160563 19.747437 13.98825 L 19.747437 19.746063 Z M 5.894312 7.813124 C 4.845875 7.813124 4.000937 6.965437 4.000937 5.920437 C 4.000937 4.876125 4.845875 4.028437 5.894312 4.028437 C 6.937937 4.028437 7.785625 4.876125 7.785625 5.920437 C 7.785625 6.965437 6.937937 7.813124 5.894312 7.813124 L 5.894312 7.813124 Z M 7.526437 19.746063 L 4.260125 19.746063 L 4.260125 9.24725 L 7.526437 9.24725 L 7.526437 19.746063 Z M 22.083563 1 L 1.917125 1 C 1.410437 1 1 1.410437 1 1.916437 L 1 22.082874 C 1 22.589561 1.410437 23 1.917125 23 L 22.083563 23 C 22.589563 23 23 22.589561 23 22.082874 L 23 1.916437 C 23 1.410437 22.589563 1 22.083563 1 L 22.083563 1 Z"/>
</svg>
