<?xml version="1.0" encoding="UTF-8"?>
<!-- Generated by Pixelmator Pro 2.4.5 -->
<svg width="24" height="24" viewBox="0 0 24 24" xmlns="http://www.w3.org/2000/svg" xmlns:xlink="http://www.w3.org/1999/xlink">
    <path id="Path" fill="#000000" stroke="none" d="M 23 12 C 23 18.075132 18.075132 23 12 23 C 5.924868 23 1 18.075132 1 12 C 1 5.924868 5.924868 1 12 1 C 18.075132 1 23 5.924868 23 12 Z M 12.394625 9.12075 C 11.324875 9.56625 9.185375 10.487499 5.978875 11.884501 C 5.459125 12.09075 5.1855 12.29425 5.16075 12.492249 C 5.1195 12.826375 5.538875 12.958374 6.1095 13.1385 L 6.350125 13.214126 C 6.911125 13.396999 7.667375 13.610125 8.05925 13.618375 C 8.41675 13.626624 8.814125 13.480875 9.252749 13.178375 C 12.248875 11.155749 13.79575 10.134125 13.892 10.112124 C 13.96075 10.095625 14.057 10.076375 14.12025 10.134125 C 14.184875 10.1905 14.177999 10.299126 14.171125 10.328001 C 14.129875 10.505375 12.484 12.034374 11.632874 12.826375 C 11.3675 13.073875 11.179125 13.2485 11.140625 13.288376 C 11.055847 13.375017 10.969668 13.460278 10.882125 13.544126 C 10.359625 14.047376 9.969125 14.424125 10.90275 15.040126 C 11.352375 15.337125 11.712625 15.5805 12.0715 15.82525 C 12.462001 16.091999 12.8525 16.357374 13.3585 16.690125 C 13.486376 16.772625 13.610125 16.862 13.729751 16.94725 C 14.184875 17.271749 14.596 17.56325 15.100625 17.5165 C 15.394875 17.488998 15.69875 17.214001 15.85275 16.389 C 16.217125 14.440624 16.9335 10.220749 17.098499 8.481375 C 17.108568 8.336782 17.102573 8.191521 17.080624 8.048249 C 17.06768 7.932642 17.011726 7.82613 16.923876 7.749876 C 16.798763 7.663511 16.649616 7.618767 16.497625 7.622 C 16.085125 7.628876 15.448501 7.85025 12.394625 9.12075 Z"/>
</svg>
